# xmcd
#
# Track frame offsets:
# 150
# 10077
# 22355
# 34845
# 45479
# 61424
# 73497
#
# Disc length: 1066 seconds
#
# Revision: 1
# Processed by: cddbd v1.5.2PL0 Copyright (c) Steve Scherf et al.
# Submitted via: CedeCatalogueitor 2.6.0.6 http://personales.ya.com/cdcatalogueitor
#
DISCID=61042807
DTITLE=Una Sonrisa Terrible - Una Sonrisa Terrible
DYEAR=1900
DGENRE=
TTITLE0=Puntos De Vista
TTITLE1=Heidi
TTITLE2=Los Grandes
TTITLE3=Mala Respuesta
TTITLE4=Sin Trucos
TTITLE5=Algo Habrá Que Hacer
TTITLE6=A La Primera
EXTD=
EXTT0=
EXTT1=
EXTT2=
EXTT3=
EXTT4=
EXTT5=
EXTT6=
PLAYORDER=
